<svg xmlns="http://www.w3.org/2000/svg" version="1.1" xmlns:xlink="http://www.w3.org/1999/xlink" xmlns:svgjs="http://svgjs.dev/svgjs" width="1000" height="623" viewBox="0 0 1000 623"><g transform="matrix(1,0,0,1,-0.6060586577395384,0.2522267206477409)"><svg viewBox="0 0 396 247" data-background-color="#ffffff" preserveAspectRatio="xMidYMid meet" height="623" width="1000" xmlns="http://www.w3.org/2000/svg" xmlns:xlink="http://www.w3.org/1999/xlink"><g id="tight-bounds" transform="matrix(1,0,0,1,0.23999922846485333,-0.09999999999999432)"><svg viewBox="0 0 395.52 247.2" height="247.2" width="395.52"><g><svg></svg></g><g><svg viewBox="0 0 395.52 247.2" height="247.2" width="395.52"><g><g><path xmlns="http://www.w3.org/2000/svg" d="M264.518 247.2v-70.499h36.124v70.499zM266.997 52.769h-4.25l-7.274 17.73-31.107 0 32.361-70.499h43.915l0 70.499-34.688 0zM197.583 194.785l-8.597-18.084h17.257zM132.773 53.477h-4.25l1.018 17.022h-34.663v-70.499h44.269l32.65 70.499h-31.92zM131.002 247.2h-36.124l0-70.499 36.124 0z" fill="#59b44e" fill-rule="nonzero" stroke="none" stroke-width="1" stroke-linecap="butt" stroke-linejoin="miter" stroke-miterlimit="10" stroke-dasharray="" stroke-dashoffset="0" font-family="none" font-weight="none" font-size="none" text-anchor="none" style="mix-blend-mode: normal" data-fill-palette-color="tertiary"></path></g></g><g transform="matrix(1,0,0,1,0,82.49565505804311)"><svg viewBox="0 0 395.52 82.20868988391376" height="82.20868988391376" width="395.52"><g><svg viewBox="0 0 395.52 82.20868988391376" height="82.20868988391376" width="395.52"><g><svg viewBox="0 0 395.52 82.20868988391376" height="82.20868988391376" width="395.52"><g><svg viewBox="0 0 395.52 82.20868988391376" height="82.20868988391376" width="395.52"><g id="textblocktransform"><svg viewBox="0 0 395.52 82.20868988391376" height="82.20868988391376" width="395.52" id="textblock"><g><svg viewBox="0 0 395.52 82.20868988391376" height="82.20868988391376" width="395.52"><g transform="matrix(1,0,0,1,0,0)"><svg width="395.52" viewBox="3.8499999046325684 -37 180.88999938964844 37.599998474121094" height="82.20868988391376" data-palette-color="#59b44e"><path d="M27.8 0L27.8-21.5 28.15-27.45 27.55-27.45 25.15-21.6 18.35-7.4 11.6-21.6 9.2-27.35 8.6-27.35 8.95-21.5 8.95 0 3.85 0 3.85-34.9 10.1-34.9 15.75-22.7 18.2-15.8 18.65-15.8 21.1-22.7 26.7-34.9 32.9-34.9 32.9 0 27.8 0ZM49.7 0.6L49.7 0.6Q47.25 0.6 45.2-0.2 43.15-1 41.7-2.68 40.25-4.35 39.42-6.9 38.6-9.45 38.6-13L38.6-13Q38.6-16.55 39.35-19.13 40.1-21.7 41.52-23.35 42.95-25 44.92-25.8 46.9-26.6 49.4-26.6L49.4-26.6Q54.35-26.6 57.12-23.35 59.9-20.1 59.9-13L59.9-13 59.9-11.7 44-11.7 44-10.05Q44-6.95 45.57-5.3 47.15-3.65 49.9-3.65L49.9-3.65Q52.25-3.65 53.77-4.7 55.3-5.75 56.35-7.65L56.35-7.65 59.35-4.8Q57.95-2.35 55.57-0.88 53.2 0.6 49.7 0.6ZM49.4-22.5L49.4-22.5Q46.8-22.5 45.4-20.93 44-19.35 44-16.2L44-16.2 44-15.15 54.45-15.15 54.45-16.2Q54.45-22.5 49.4-22.5ZM70.45 0L65.3 0 65.3-26 70.45-26 70.45-21.7 71.05-21.7Q72.59-26.6 77.3-26.6L77.3-26.6Q82.15-26.6 83.75-21.6L83.75-21.6 84.3-21.6Q85.09-24.15 86.84-25.38 88.59-26.6 91.25-26.6L91.25-26.6Q94.59-26.6 96.47-24.23 98.34-21.85 98.34-17.25L98.34-17.25 98.34 0 93.2 0 93.2-16.55Q93.2-19.3 92.17-20.75 91.15-22.2 89.05-22.2L89.05-22.2Q87.15-22.2 85.77-20.98 84.4-19.75 84.4-17.55L84.4-17.55 84.4 0 79.25 0 79.25-16.55Q79.25-19.3 78.22-20.75 77.2-22.2 75.09-22.2L75.09-22.2Q73.15-22.2 71.8-20.98 70.45-19.75 70.45-17.55L70.45-17.55 70.45 0ZM124.64 0L124.64-15.45 110.74-15.45 110.74 0 105.44 0 105.44-34.9 110.74-34.9 110.74-20.05 124.64-20.05 124.64-34.9 129.94-34.9 129.94 0 124.64 0ZM151.39 0L151.39-4.3 150.74-4.3Q149.19 0.6 144.29 0.6L144.29 0.6Q140.84 0.6 138.92-1.78 136.99-4.15 136.99-8.75L136.99-8.75 136.99-26 142.14-26 142.14-9.45Q142.14-3.8 146.54-3.8L146.54-3.8Q148.54-3.8 149.97-5.03 151.39-6.25 151.39-8.45L151.39-8.45 151.39-26 156.54-26 156.54 0 151.39 0ZM163.54 0L163.54-37 168.69-37 168.69-21.75 169.29-21.75Q169.94-24.05 171.61-25.33 173.29-26.6 175.59-26.6L175.59-26.6Q180.24-26.6 182.49-23.08 184.74-19.55 184.74-13L184.74-13Q184.74-6.45 182.49-2.93 180.24 0.6 175.59 0.6L175.59 0.6Q173.29 0.6 171.61-0.68 169.94-1.95 169.29-4.25L169.29-4.25 168.69-4.25 168.69 0 163.54 0ZM173.74-3.8L173.74-3.8Q176.39-3.8 177.84-5.45 179.29-7.1 179.29-10.1L179.29-10.1 179.29-15.9Q179.29-18.9 177.84-20.55 176.39-22.2 173.74-22.2L173.74-22.2Q171.54-22.2 170.11-21.05 168.69-19.9 168.69-17.9L168.69-17.9 168.69-8.1Q168.69-6.1 170.11-4.95 171.54-3.8 173.74-3.8Z" opacity="1" transform="matrix(1,0,0,1,0,0)" fill="#59b44e" class="undefined-text-0" data-fill-palette-color="primary" id="text-0"></path></svg></g></svg></g></svg></g></svg></g></svg></g></svg></g></svg></g></svg></g><defs></defs></svg><rect width="395.52" height="247.2" fill="none" stroke="none" visibility="hidden"></rect></g></svg></g></svg>