<svg xmlns="http://www.w3.org/2000/svg" version="1.1" xmlns:xlink="http://www.w3.org/1999/xlink" xmlns:svgjs="http://svgjs.com/svgjs" width="1440" height="1000" preserveAspectRatio="none" viewBox="0 0 1440 1000"><g mask="url(&quot;#SvgjsMask1012&quot;)" fill="none"><rect width="1440" height="1000" x="0" y="0" fill="rgba(90, 180, 80, 1)"></rect><path d="M0,640.673C126.61,671.055,268.75,658.987,379.375,590.319C490.559,521.304,566.954,399.462,594.641,271.563C620.127,153.832,546.491,42.974,523.459,-75.262C501.873,-186.075,528.371,-309.229,463.504,-401.629C396.477,-497.107,284.192,-555.18,169.956,-578.816C60.285,-601.507,-46.988,-557.273,-155.537,-529.709C-268.507,-501.022,-391.815,-492.639,-478.08,-414.259C-568.7,-331.921,-644.904,-213.901,-637.628,-91.677C-630.494,28.159,-509.328,102.595,-441.418,201.589C-386.962,280.971,-346.246,364.681,-277.996,432.57C-194.233,515.89,-114.884,613.104,0,640.673" fill="#47923e"></path><path d="M1440 1577.909C1550.368 1585.634 1661.037 1548.412 1751.593 1484.848 1840.145 1422.69 1888.787 1323.732 1938.79 1227.79 1991.391 1126.864 2055.134 1025.991 2049.995 912.296 2044.635 793.71 2005.828 662.844 1910.085 592.669 1816.118 523.796 1684.278 578.216 1569.221 559.913 1473.337 544.6600000000001 1388.234 485.909 1291.504 494.267 1182.002 503.729 1054.309 520.923 989.884 609.972 925.385 699.123 972.04 822.9929999999999 974.081 933.011 975.778 1024.475 970.2239999999999 1114.353 1000.8389999999999 1200.558 1033.576 1292.739 1081.04 1379.354 1155.234 1443.105 1236.535 1512.964 1333.07 1570.424 1440 1577.909" fill="#7cc474"></path></g><defs><mask id="SvgjsMask1012"><rect width="1440" height="1000" fill="#ffffff"></rect></mask></defs></svg>